<?xml version="1.0" encoding="iso-8859-1"?>
<!-- Generator: Adobe Illustrator 19.0.0, SVG Export Plug-In . SVG Version: 6.00 Build 0)  -->
<svg version="1.1" id="Layer_1" xmlns="http://www.w3.org/2000/svg" xmlns:xlink="http://www.w3.org/1999/xlink" x="0px" y="0px"
	 viewBox="0 0 512.002 512.002" style="enable-background:new 0 0 512.002 512.002;" xml:space="preserve">
<g>
	<path style="fill:#3A5D74;" d="M477.78,254.388c-0.004,0-0.009,0-0.013,0L262.9,254.061c-4.602-0.007-8.327-3.743-8.32-8.345
		c0.008-4.597,3.736-8.321,8.333-8.321c0.004,0,0.008,0,0.013,0l214.867,0.327c4.602,0.007,8.326,3.743,8.32,8.345
		C486.106,250.665,482.376,254.388,477.78,254.388z"/>
	<path style="fill:#3A5D74;" d="M449.748,402.894c-0.526,0-1.057-0.05-1.591-0.153c-4.519-0.873-7.474-5.244-6.601-9.763
		l24.354-126.01c0.873-4.519,5.246-7.471,9.763-6.6c4.518,0.873,7.474,5.244,6.6,9.763L457.92,396.14
		C457.15,400.126,453.659,402.894,449.748,402.894z"/>
	<path style="fill:#3A5D74;" d="M428.325,416.681c-0.144,0-0.288-0.003-0.433-0.011l-141.907-7.261
		c-4.596-0.236-8.131-4.152-7.895-8.748c0.234-4.596,4.149-8.134,8.747-7.896l141.907,7.261c4.596,0.236,8.131,4.152,7.895,8.747
		C436.411,413.225,432.73,416.681,428.325,416.681z"/>
	<path style="fill:#3A5D74;" d="M273.513,384.717c-4.299,0-7.944-3.302-8.297-7.662l-8.729-107.832
		c-0.371-4.586,3.046-8.607,7.634-8.978c4.583-0.373,8.606,3.045,8.977,7.634l8.728,107.832c0.371,4.587-3.046,8.607-7.633,8.978
		C273.966,384.707,273.738,384.717,273.513,384.717z"/>
	<path style="fill:#3A5D74;" d="M250.118,230.112c-2.971,0-5.845-1.592-7.348-4.392l-37.097-69.076
		c-2.178-4.054-0.657-9.106,3.4-11.284c4.053-2.177,9.105-0.657,11.283,3.399l37.097,69.076c2.178,4.054,0.657,9.106-3.4,11.284
		C252.798,229.792,251.448,230.112,250.118,230.112z"/>
	<path style="fill:#3A5D74;" d="M176.335,132.519c-0.237,0-0.476-0.01-0.716-0.03L40.989,121.054
		c-4.585-0.39-7.988-4.422-7.597-9.008c0.389-4.585,4.425-7.986,9.007-7.597l134.632,11.435c4.585,0.39,7.987,4.422,7.597,9.008
		C184.259,129.235,180.617,132.519,176.335,132.519z"/>
</g>
<g>
	<circle style="fill:#90C8EC;" cx="34.22" cy="111.48" r="34.22"/>
	<circle style="fill:#90C8EC;" cx="198.355" cy="125.412" r="34.22"/>
	<circle style="fill:#90C8EC;" cx="262.917" cy="245.616" r="34.22"/>
	<circle style="fill:#90C8EC;" cx="275.439" cy="400.329" r="34.22"/>
	<circle style="fill:#90C8EC;" cx="446.273" cy="409.073" r="34.221"/>
	<circle style="fill:#90C8EC;" cx="477.782" cy="246.05" r="34.22"/>
</g>
<g>
	<path style="opacity:0.1;fill:#231F20;enable-background:new    ;" d="M17.218,111.475c0-15.925,10.879-29.309,25.612-33.127
		c-2.751-0.713-5.634-1.093-8.608-1.093C15.32,77.255,0,92.578,0,111.475c0,18.9,15.32,34.22,34.221,34.22
		c2.974,0,5.857-0.381,8.608-1.093C28.097,140.786,17.218,127.402,17.218,111.475z"/>
	<path style="opacity:0.1;fill:#231F20;enable-background:new    ;" d="M181.357,125.416c0-15.925,10.879-29.309,25.611-33.127
		c-2.752-0.713-5.635-1.093-8.609-1.093c-18.899,0-34.219,15.324-34.219,34.221c0,18.9,15.32,34.221,34.219,34.221
		c2.974,0,5.857-0.38,8.609-1.093C192.236,154.726,181.357,141.343,181.357,125.416z"/>
	<path style="opacity:0.1;fill:#231F20;enable-background:new    ;" d="M245.912,245.616c0-15.926,10.879-29.31,25.612-33.128
		c-2.751-0.713-5.635-1.093-8.608-1.093c-18.901,0-34.221,15.322-34.221,34.221s15.32,34.22,34.221,34.22
		c2.973,0,5.857-0.38,8.608-1.093C256.791,274.926,245.912,261.542,245.912,245.616z"/>
	<path style="opacity:0.1;fill:#231F20;enable-background:new    ;" d="M258.438,400.335c0-15.925,10.879-29.309,25.611-33.128
		c-2.752-0.713-5.635-1.093-8.609-1.093c-18.899,0-34.219,15.322-34.219,34.221c0,18.9,15.32,34.221,34.219,34.221
		c2.974,0,5.859-0.38,8.609-1.093C269.317,429.644,258.438,416.26,258.438,400.335z"/>
	<path style="opacity:0.1;fill:#231F20;enable-background:new    ;" d="M429.268,409.075c0-15.925,10.882-29.309,25.615-33.127
		c-2.751-0.713-5.634-1.093-8.608-1.093c-18.901,0-34.225,15.323-34.225,34.221c0,18.9,15.324,34.221,34.225,34.221
		c2.974,0,5.857-0.38,8.608-1.093C440.15,438.384,429.268,425.001,429.268,409.075z"/>
	<path style="opacity:0.1;fill:#231F20;enable-background:new    ;" d="M460.779,246.045c0-15.925,10.879-29.309,25.611-33.128
		c-2.751-0.713-5.634-1.093-8.608-1.093c-18.9,0-34.22,15.322-34.22,34.221c0,18.9,15.32,34.221,34.22,34.221
		c2.974,0,5.859-0.38,8.608-1.093C471.658,275.354,460.779,261.971,460.779,246.045z"/>
</g>
<g>
	<circle style="fill:#FFD960;" cx="101.161" cy="228.939" r="17.11"/>
	<path style="fill:#FFD960;" d="M359.947,146.144c0,9.449-7.662,17.111-17.108,17.111c-9.454,0-17.112-7.662-17.112-17.111
		c0-9.449,7.658-17.11,17.112-17.11C352.285,129.034,359.947,136.695,359.947,146.144z"/>
	<circle style="fill:#FFD960;" cx="167.768" cy="312.657" r="8.556"/>
	<circle style="fill:#FFD960;" cx="286.416" cy="77.26" r="8.555"/>
</g>
<g>
</g>
<g>
</g>
<g>
</g>
<g>
</g>
<g>
</g>
<g>
</g>
<g>
</g>
<g>
</g>
<g>
</g>
<g>
</g>
<g>
</g>
<g>
</g>
<g>
</g>
<g>
</g>
<g>
</g>
</svg>
